<svg width="100%" style="" viewBox="0 0 38 42" fill="currentColor" xmlns="http://www.w3.org/2000/svg">
<path d="M30.0833 3.43056H14.25C12.5036 3.43056 11.0833 4.96916 11.0833 6.86111V17.1528H7.91667C6.17025 17.1528 4.75 18.6914 4.75 20.5833V36.0208C4.75 36.4758 4.91681 36.912 5.21375 37.2337C5.51068 37.5554 5.91341 37.7361 6.33333 37.7361H31.6667C32.0866 37.7361 32.4893 37.5554 32.7863 37.2337C33.0832 36.912 33.25 36.4758 33.25 36.0208V6.86111C33.25 4.96916 31.8298 3.43056 30.0833 3.43056ZM7.91667 20.5833H17.4167V34.3056H7.91667V20.5833ZM30.0833 34.3056H20.5833V20.5833C20.5833 18.6914 19.1631 17.1528 17.4167 17.1528H14.25V6.86111H30.0833V34.3056Z" fill="currentColor"/>
<path d="M17.4166 10.2917H20.5833V13.7222H17.4166V10.2917ZM23.75 10.2917H26.9166V13.7222H23.75V10.2917ZM23.75 17.206H26.9166V20.5833H23.75V17.206ZM23.75 24.0139H26.9166V27.4445H23.75V24.0139ZM11.0833 24.0156H14.25V27.4462H11.0833V24.0156Z" fill="currentColor"/>
</svg>