<svg width="100%" style="" viewBox="0 0 18 18" fill="currentColor" xmlns="http://www.w3.org/2000/svg">
<path d="M1.84062 5.95463C2.05158 5.74372 2.33768 5.62524 2.63599 5.62524C2.9343 5.62524 3.2204 5.74372 3.43137 5.95463L9.00012 11.5234L14.5689 5.95463C14.781 5.7497 15.0652 5.63631 15.3602 5.63887C15.6552 5.64143 15.9373 5.75975 16.1459 5.96833C16.3545 6.17692 16.4728 6.45908 16.4754 6.75405C16.4779 7.04902 16.3645 7.3332 16.1596 7.54538L9.79549 13.9095C9.58452 14.1204 9.29842 14.2389 9.00012 14.2389C8.70181 14.2389 8.41571 14.1204 8.20474 13.9095L1.84062 7.54538C1.62971 7.33441 1.51123 7.04831 1.51123 6.75C1.51123 6.45169 1.62971 6.1656 1.84062 5.95463Z" fill="currentColor"/>
</svg>