<svg width="100%" style="" viewBox="0 0 38 38" fill="currentColor" xmlns="http://www.w3.org/2000/svg">
<path d="M19 34.8333C10.2553 34.8333 3.16669 27.7447 3.16669 19C3.16669 10.2552 10.2553 3.16666 19 3.16666C27.7448 3.16666 34.8334 10.2552 34.8334 19C34.8239 27.74 27.74 34.8238 19 34.8333ZM19 6.33333C16.4948 6.33333 14.0458 7.07622 11.9628 8.46805C9.87977 9.85988 8.25626 11.8381 7.29755 14.1527C6.33884 16.4672 6.08799 19.014 6.57674 21.4711C7.06549 23.9282 8.27187 26.1852 10.0433 27.9567C11.8148 29.7281 14.0718 30.9345 16.5289 31.4233C18.986 31.912 21.5328 31.6612 23.8473 30.7025C26.1619 29.7438 28.1401 28.1202 29.532 26.0372C30.9238 23.9542 31.6667 21.5052 31.6667 19C31.6629 15.6417 30.3272 12.4221 27.9525 10.0475C25.5779 7.67283 22.3583 6.3371 19 6.33333V6.33333ZM26.9167 20.5833H17.4167V11.0833H20.5834V17.4167H26.9167V20.5833Z" fill="currentColor"/>
</svg>