<svg width="100%" style="" viewBox="0 0 12 12" fill="currentColor" xmlns="http://www.w3.org/2000/svg">
<path d="M8.60878 8.90941C8.47376 9.04442 8.29063 9.12027 8.09968 9.12027C7.90874 9.12027 7.72561 9.04442 7.59058 8.90941L5.99998 7.09141L4.40938 8.90881C4.34273 8.97656 4.26331 9.03044 4.17573 9.06735C4.08814 9.10426 3.99411 9.12346 3.89907 9.12385C3.80402 9.12423 3.70984 9.1058 3.62196 9.06961C3.53408 9.03341 3.45423 8.98018 3.38702 8.91297C3.31981 8.84576 3.26658 8.76591 3.23038 8.67803C3.19419 8.59015 3.17576 8.49597 3.17614 8.40092C3.17653 8.30588 3.19573 8.21185 3.23264 8.12426C3.26955 8.03668 3.32343 7.95726 3.39118 7.89061L5.04598 6.00061L3.39058 4.10941C3.32283 4.04275 3.26895 3.96334 3.23204 3.87575C3.19513 3.78816 3.17593 3.69414 3.17554 3.59909C3.17516 3.50405 3.19359 3.40987 3.22978 3.32198C3.26598 3.2341 3.31921 3.15425 3.38642 3.08704C3.45363 3.01984 3.53348 2.9666 3.62136 2.93041C3.70924 2.89421 3.80342 2.87578 3.89847 2.87617C3.99351 2.87655 4.08754 2.89575 4.17513 2.93266C4.26271 2.96957 4.34213 3.02345 4.40878 3.09121L5.99998 4.90981L7.59058 3.09121C7.65724 3.02345 7.73665 2.96957 7.82424 2.93266C7.91183 2.89575 8.00585 2.87655 8.1009 2.87617C8.19594 2.87578 8.29012 2.89421 8.37801 2.93041C8.46589 2.9666 8.54574 3.01984 8.61295 3.08704C8.68015 3.15425 8.73339 3.2341 8.76958 3.32198C8.80578 3.40987 8.82421 3.50405 8.82382 3.59909C8.82344 3.69414 8.80423 3.78816 8.76733 3.87575C8.73042 3.96334 8.67653 4.04275 8.60878 4.10941L6.95398 6.00061L8.60878 7.89061C8.67573 7.95747 8.72883 8.03688 8.76507 8.12429C8.8013 8.2117 8.81995 8.30539 8.81995 8.40001C8.81995 8.49463 8.8013 8.58832 8.76507 8.67572C8.72883 8.76313 8.67573 8.84254 8.60878 8.90941Z" fill="currentColor"/>
</svg>