<svg width="100%" style="" viewBox="0 0 38 38" fill="currentColor" xmlns="http://www.w3.org/2000/svg">
<path d="M23.0565 14.4281L15.8745 15.3282L15.618 16.5205L17.0311 16.777C17.9502 16.9979 18.1331 17.328 17.9336 18.2471L15.618 29.1175C15.0124 31.9271 15.9505 33.25 18.1521 33.25C19.8621 33.25 21.8429 32.4615 22.743 31.3761L23.0185 30.0722C22.3939 30.6232 21.4747 30.8441 20.8691 30.8441C20.007 30.8441 19.6959 30.2385 19.9144 29.1721L23.0565 14.4281V14.4281ZM23.2726 7.885C23.2726 8.71645 22.9423 9.51385 22.3544 10.1018C21.7665 10.6897 20.9691 11.02 20.1376 11.02C19.3062 11.02 18.5088 10.6897 17.9208 10.1018C17.3329 9.51385 17.0026 8.71645 17.0026 7.885C17.0026 7.05355 17.3329 6.25615 17.9208 5.66822C18.5088 5.08029 19.3062 4.75 20.1376 4.75C20.9691 4.75 21.7665 5.08029 22.3544 5.66822C22.9423 6.25615 23.2726 7.05355 23.2726 7.885V7.885Z" fill="currentColor"/>
</svg>