<svg width="100%" style="" viewBox="0 0 32 32" fill="currentColor" xmlns="http://www.w3.org/2000/svg">
<path d="M20.6666 22.6667C21.197 22.6667 21.7057 22.8774 22.0808 23.2525C22.4559 23.6275 22.6666 24.1362 22.6666 24.6667C22.6666 25.1971 22.4559 25.7058 22.0808 26.0809C21.7057 26.456 21.197 26.6667 20.6666 26.6667C20.1362 26.6667 19.6274 26.456 19.2524 26.0809C18.8773 25.7058 18.6666 25.1971 18.6666 24.6667C18.6666 24.1362 18.8773 23.6275 19.2524 23.2525C19.6274 22.8774 20.1362 22.6667 20.6666 22.6667V22.6667ZM11.3333 22.6667C11.8637 22.6667 12.3724 22.8774 12.7475 23.2525C13.1225 23.6275 13.3333 24.1362 13.3333 24.6667C13.3333 25.1971 13.1225 25.7058 12.7475 26.0809C12.3724 26.456 11.8637 26.6667 11.3333 26.6667C10.8028 26.6667 10.2941 26.456 9.91904 26.0809C9.54397 25.7058 9.33325 25.1971 9.33325 24.6667C9.33325 24.1362 9.54397 23.6275 9.91904 23.2525C10.2941 22.8774 10.8028 22.6667 11.3333 22.6667ZM20.6666 13.3333C21.197 13.3333 21.7057 13.544 22.0808 13.9191C22.4559 14.2942 22.6666 14.8029 22.6666 15.3333C22.6666 15.8638 22.4559 16.3725 22.0808 16.7475C21.7057 17.1226 21.197 17.3333 20.6666 17.3333C20.1362 17.3333 19.6274 17.1226 19.2524 16.7475C18.8773 16.3725 18.6666 15.8638 18.6666 15.3333C18.6666 14.8029 18.8773 14.2942 19.2524 13.9191C19.6274 13.544 20.1362 13.3333 20.6666 13.3333V13.3333ZM11.3333 13.3333C11.8637 13.3333 12.3724 13.544 12.7475 13.9191C13.1225 14.2942 13.3333 14.8029 13.3333 15.3333C13.3333 15.8638 13.1225 16.3725 12.7475 16.7475C12.3724 17.1226 11.8637 17.3333 11.3333 17.3333C10.8028 17.3333 10.2941 17.1226 9.91904 16.7475C9.54397 16.3725 9.33325 15.8638 9.33325 15.3333C9.33325 14.8029 9.54397 14.2942 9.91904 13.9191C10.2941 13.544 10.8028 13.3333 11.3333 13.3333ZM20.6666 4C21.197 4 21.7057 4.21071 22.0808 4.58579C22.4559 4.96086 22.6666 5.46957 22.6666 6C22.6666 6.53043 22.4559 7.03914 22.0808 7.41421C21.7057 7.78929 21.197 8 20.6666 8C20.1362 8 19.6274 7.78929 19.2524 7.41421C18.8773 7.03914 18.6666 6.53043 18.6666 6C18.6666 5.46957 18.8773 4.96086 19.2524 4.58579C19.6274 4.21071 20.1362 4 20.6666 4V4ZM11.3333 4C11.8637 4 12.3724 4.21071 12.7475 4.58579C13.1225 4.96086 13.3333 5.46957 13.3333 6C13.3333 6.53043 13.1225 7.03914 12.7475 7.41421C12.3724 7.78929 11.8637 8 11.3333 8C10.8028 8 10.2941 7.78929 9.91904 7.41421C9.54397 7.03914 9.33325 6.53043 9.33325 6C9.33325 5.46957 9.54397 4.96086 9.91904 4.58579C10.2941 4.21071 10.8028 4 11.3333 4Z" fill="currentColor"/>
</svg>