<svg width="100%" style="" viewBox="0 0 20 20" fill="currentColor" xmlns="http://www.w3.org/2000/svg">
<path d="M9.99998 1.66667C8.24336 1.66658 6.55769 2.3598 5.30935 3.59566C4.06101 4.83152 3.35088 6.51014 3.33331 8.26667C3.33331 12.8333 9.20831 17.9167 9.45831 18.1333C9.60926 18.2624 9.80135 18.3334 9.99998 18.3334C10.1986 18.3334 10.3907 18.2624 10.5416 18.1333C10.8333 17.9167 16.6666 12.8333 16.6666 8.26667C16.6491 6.51014 15.939 4.83152 14.6906 3.59566C13.4423 2.3598 11.7566 1.66658 9.99998 1.66667ZM9.99998 16.375C8.60831 15.05 4.99998 11.375 4.99998 8.26667C4.99998 6.94059 5.52676 5.66882 6.46445 4.73114C7.40213 3.79346 8.6739 3.26667 9.99998 3.26667C11.3261 3.26667 12.5978 3.79346 13.5355 4.73114C14.4732 5.66882 15 6.94059 15 8.26667C15 11.35 11.3916 15.05 9.99998 16.375Z" fill="currentColor"/>
<path d="M9.99998 5C9.42312 5 8.85921 5.17106 8.37957 5.49155C7.89992 5.81203 7.52609 6.26756 7.30533 6.80051C7.08458 7.33346 7.02682 7.9199 7.13936 8.48568C7.2519 9.05146 7.52968 9.57116 7.93759 9.97906C8.34549 10.387 8.86519 10.6648 9.43097 10.7773C9.99675 10.8898 10.5832 10.8321 11.1161 10.6113C11.6491 10.3906 12.1046 10.0167 12.4251 9.53708C12.7456 9.05744 12.9166 8.49353 12.9166 7.91667C12.9166 7.14312 12.6094 6.40125 12.0624 5.85427C11.5154 5.30729 10.7735 5 9.99998 5V5ZM9.99998 9.16667C9.75275 9.16667 9.51108 9.09336 9.30552 8.956C9.09996 8.81865 8.93974 8.62343 8.84513 8.39502C8.75052 8.16661 8.72577 7.91528 8.774 7.6728C8.82223 7.43033 8.94128 7.2076 9.1161 7.03278C9.29091 6.85797 9.51364 6.73892 9.75612 6.69068C9.99859 6.64245 10.2499 6.66721 10.4783 6.76182C10.7067 6.85643 10.902 7.01664 11.0393 7.2222C11.1767 7.42777 11.25 7.66944 11.25 7.91667C11.25 8.24819 11.1183 8.56613 10.8839 8.80055C10.6494 9.03497 10.3315 9.16667 9.99998 9.16667Z" fill="currentColor"/>
</svg>