<svg width="100%" style="" viewBox="0 0 38 38" fill="currentColor" xmlns="http://www.w3.org/2000/svg">
<path d="M21.8817 34.8333H16.1184C15.7572 34.8334 15.407 34.71 15.1256 34.4837C14.8442 34.2573 14.6487 33.9416 14.5714 33.5888L13.927 30.6058C13.0674 30.2292 12.2522 29.7581 11.4966 29.2014L8.58802 30.1277C8.24375 30.2375 7.87227 30.2262 7.53529 30.0957C7.19831 29.9652 6.9161 29.7234 6.73552 29.4104L3.84752 24.4213C3.66883 24.108 3.60176 23.7434 3.65727 23.387C3.71278 23.0307 3.88759 22.7037 4.1531 22.4596L6.40935 20.4012C6.30675 19.4688 6.30675 18.528 6.40935 17.5956L4.1531 15.542C3.88722 15.2978 3.71217 14.9705 3.65665 14.6138C3.60113 14.2571 3.66843 13.8921 3.84752 13.5787L6.72919 8.58642C6.90977 8.27342 7.19198 8.0316 7.52896 7.90113C7.86594 7.77066 8.23741 7.75938 8.58169 7.86917L11.4903 8.79542C11.8766 8.51042 12.2788 8.24442 12.6936 8.00375C13.0942 7.77892 13.5059 7.57467 13.927 7.39258L14.573 4.41275C14.6499 4.05998 14.8451 3.74409 15.1262 3.51745C15.4072 3.29082 15.7573 3.16705 16.1184 3.16667H21.8817C22.2427 3.16705 22.5928 3.29082 22.8739 3.51745C23.155 3.74409 23.3501 4.05998 23.427 4.41275L24.0794 7.39417C24.9385 7.77084 25.7531 8.24187 26.5082 8.79858L29.4184 7.87233C29.7624 7.76295 30.1335 7.77444 30.4702 7.90489C30.8068 8.03534 31.0888 8.27692 31.2693 8.58958L34.1509 13.5818C34.5183 14.2262 34.3916 15.0417 33.8454 15.5436L31.5891 17.6019C31.6917 18.5343 31.6917 19.4752 31.5891 20.4076L33.8454 22.4659C34.3916 22.9694 34.5183 23.7832 34.1509 24.4277L31.2693 29.4199C31.0887 29.7329 30.8065 29.9747 30.4695 30.1052C30.1325 30.2357 29.761 30.247 29.4168 30.1372L26.5082 29.2109C25.7532 29.7672 24.9385 30.2377 24.0794 30.6137L23.427 33.5888C23.3498 33.9413 23.1545 34.2568 22.8735 34.4832C22.5924 34.7095 22.2425 34.833 21.8817 34.8333ZM12.065 25.6959L13.3634 26.6459C13.6563 26.8612 13.9603 27.0592 14.2769 27.2397C14.5746 27.4122 14.8786 27.5674 15.1937 27.7083L16.6709 28.3559L17.3945 31.6667H20.6087L21.3323 28.3543L22.8095 27.7067C23.4539 27.4217 24.0667 27.0687 24.6351 26.6522L25.9334 25.7022L29.1666 26.7314L30.7737 23.9479L28.2673 21.6632L28.4446 20.0608C28.5238 19.3594 28.5238 18.6517 28.4446 17.9518L28.2673 16.3495L30.7753 14.06L29.1666 11.2749L25.935 12.3041L24.6351 11.3541C24.0664 10.9356 23.4543 10.5794 22.8095 10.2917L21.3323 9.64408L20.6087 6.33333H17.3945L16.6662 9.64567L15.1937 10.2917C14.548 10.5745 13.9357 10.9281 13.3681 11.3462L12.0682 12.2962L8.83819 11.267L7.22794 14.06L9.73435 16.3416L9.55702 17.9455C9.47785 18.6469 9.47785 19.3547 9.55702 20.0545L9.73435 21.6568L7.22794 23.9416L8.83502 26.7251L12.065 25.6959V25.6959ZM18.9937 25.3333C17.314 25.3333 15.7031 24.6661 14.5153 23.4783C13.3276 22.2906 12.6604 20.6797 12.6604 19C12.6604 17.3203 13.3276 15.7094 14.5153 14.5217C15.7031 13.3339 17.314 12.6667 18.9937 12.6667C20.6734 12.6667 22.2843 13.3339 23.472 14.5217C24.6598 15.7094 25.327 17.3203 25.327 19C25.327 20.6797 24.6598 22.2906 23.472 23.4783C22.2843 24.6661 20.6734 25.3333 18.9937 25.3333ZM18.9937 15.8333C18.3736 15.834 17.7673 16.0166 17.2501 16.3587C16.7329 16.7008 16.3275 17.1872 16.0842 17.7575C15.8409 18.3279 15.7704 18.9572 15.8814 19.5672C15.9925 20.1773 16.2803 20.7413 16.709 21.1894C17.1377 21.6374 17.6886 21.9497 18.2932 22.0875C18.8978 22.2253 19.5295 22.1825 20.11 21.9646C20.6906 21.7466 21.1943 21.363 21.5588 20.8613C21.9233 20.3596 22.1325 19.762 22.1604 19.1425V19.7758V19C22.1604 18.1601 21.8267 17.3547 21.2329 16.7608C20.639 16.167 19.8335 15.8333 18.9937 15.8333Z" fill="currentColor"/>
</svg>